PathFileType	4	(X/Y/Z)	E:\3-PhD\Data\MocapData\ElaboratedData\009\pre\dynamicElaborations\Run_baseline2\Run_baseline2.trc
DataRate	CameraRate	NumFrames	NumMarkers	Units	OrigDataRate	DataStartFrame
200	200	5	54	mm	200	739
Frame#	Time	FHD			LBHD			RBHD			C7			T10			CLAV			LSHO			LUUPA			LMUPA			LDUPA			LLEP			LMEP			LRAD			LUL			LRFIN			RSHO			RUPA1			RMUPA			RDUPA			RLEP			RMEP			RRAD			RUL			RUFIN			RASI			USACR			LSACR			RSACR			LTHI1			LTHI2			LTHI3			LTHI4			LTIB1			LTIB2			LTIB3			LTIB4			LLMAL			LHEE			LMT1			LMT2			RTHI			RTHI2			RTHI3			RTHI4			RLFC			RTIB1			RTIB2			RTIB3			RTIB4			RLMAL			RHEE			RMT1			RMT2			RMT5		
		X1	Y1	Z1	X2	Y2	Z2	X3	Y3	Z3	X4	Y4	Z4	X5	Y5	Z5	X6	Y6	Z6	X7	Y7	Z7	X8	Y8	Z8	X9	Y9	Z9	X10	Y10	Z10	X11	Y11	Z11	X12	Y12	Z12	X13	Y13	Z13	X14	Y14	Z14	X15	Y15	Z15	X16	Y16	Z16	X17	Y17	Z17	X18	Y18	Z18	X19	Y19	Z19	X20	Y20	Z20	X21	Y21	Z21	X22	Y22	Z22	X23	Y23	Z23	X24	Y24	Z24	X25	Y25	Z25	X26	Y26	Z26	X27	Y27	Z27	X28	Y28	Z28	X29	Y29	Z29	X30	Y30	Z30	X31	Y31	Z31	X32	Y32	Z32	X33	Y33	Z33	X34	Y34	Z34	X35	Y35	Z35	X36	Y36	Z36	X37	Y37	Z37	X38	Y38	Z38	X39	Y39	Z39	X40	Y40	Z40	X41	Y41	Z41	X42	Y42	Z42	X43	Y43	Z43	X44	Y44	Z44	X45	Y45	Z45	X46	Y46	Z46	X47	Y47	Z47	X48	Y48	Z48	X49	Y49	Z49	X50	Y50	Z50	X51	Y51	Z51	X52	Y52	Z52	X53	Y53	Z53	X54	Y54	Z54	

767	3.830000	-50.229492	1435.402478	-50.824226	-248.297811	1417.852386	-19.716334	-145.642092	1414.966702	54.248586	-272.436087	1300.637156	7.489480	-497.079607	1034.931568	36.208741	-197.843579	1156.741594	-26.177883	-243.527593	1209.574856	-163.918627	-422.596042	1128.492207	-235.152296	-421.589804	1080.527048	-224.556569	-479.167643	1088.540652	-242.216498	-587.748946	1031.931323	-235.922047	-606.333159	1046.336582	-165.655751	-583.400834	779.143205	-158.022839	-653.804255	779.681687	-182.017130	-581.316921	702.478639	-178.668999	-171.391692	1217.928984	141.005164	-191.895330	1073.526090	239.892075	-168.938703	1037.972365	220.024609	-192.706729	1011.317632	268.751317	-193.230172	872.741377	285.865819	-252.226443	853.708694	242.280240	-49.254435	911.702113	73.601262	-19.672592	853.831953	94.250187	24.290747	936.754459	57.613024	-358.129136	864.163232	175.078290	-544.538576	942.832598	62.848329	-558.100370	905.216615	48.526124	-544.803067	923.456610	102.806562	-391.403626	618.765392	-117.946768	-316.362978	602.890486	-156.458488	-295.415062	645.646033	-166.347954	-277.080099	556.449249	-145.677526	-56.081624	393.345358	-74.419089	-120.760249	339.510347	-49.539151	-76.444322	344.402406	-50.567478	-41.957237	306.658932	17.604929	-70.296750	189.924429	128.420698	-97.476882	189.423106	227.589295	93.804219	182.758210	112.405022	67.674072	161.983299	78.358433	-424.868075	673.779104	342.284375	-396.938763	618.462260	361.578747	-366.141830	609.333422	353.681114	-441.003448	547.726932	384.571477	-442.501106	441.154328	418.652637	-531.328477	245.344817	470.834208	-622.126916	248.147640	532.928416	-592.823106	213.023455	521.263105	-623.943047	165.439883	509.907309	-718.641240	144.447629	578.180035	-808.187484	114.949343	557.294004	-594.896541	53.922133	524.128597	-591.553038	55.058070	565.244875	-632.815987	42.725545	626.359372	
768	3.835000	-28.293499	1439.016928	-63.267153	-226.253792	1422.135944	-31.907110	-123.565066	1418.928857	41.986835	-250.017341	1303.464027	-2.835610	-471.427485	1036.052658	30.452074	-174.995993	1160.763097	-39.131421	-224.457321	1214.503155	-175.361422	-405.169753	1135.063389	-243.181005	-403.804361	1086.691027	-234.416582	-461.979705	1095.464440	-249.920056	-570.200511	1037.823608	-241.595453	-586.494824	1050.100889	-170.270233	-556.242159	783.575072	-170.062172	-627.679796	782.692008	-190.828871	-553.008656	707.344921	-192.773480	-145.958564	1221.808284	127.073439	-163.750229	1076.471271	225.282729	-141.234601	1041.268264	204.044398	-163.597665	1013.853670	253.194351	-163.833496	875.329499	268.691494	-224.222804	856.624102	226.144721	-28.920352	922.756815	52.285366	2.867977	865.111569	70.145720	43.293502	950.054236	33.580791	-330.701742	864.406384	166.747136	-518.221704	944.730782	57.766017	-532.289460	907.158935	43.771203	-517.842760	925.403682	97.779581	-369.746824	619.172288	-124.162782	-295.069259	602.282711	-162.968598	-274.092569	644.837805	-173.557740	-255.949860	555.761723	-151.700856	-28.348346	394.140932	-84.597568	-90.247965	337.629823	-58.541225	-46.611659	344.418219	-61.120487	-8.160790	307.144000	6.183201	-29.040630	188.218814	116.853664	-53.693643	186.603213	216.515275	135.294651	186.100701	97.118322	109.240420	164.394874	63.724795	-405.166094	676.123931	335.612472	-379.857133	619.559243	354.989981	-349.661497	609.152928	346.976068	-427.380489	551.359815	378.784181	-434.354139	445.196554	413.447997	-525.575916	250.151793	467.681812	-615.551825	254.258468	530.692370	-586.661829	218.737751	519.125911	-618.246336	171.322104	508.568171	-712.622168	151.092884	577.098543	-802.960895	125.184548	557.270417	-594.082474	53.419203	524.318660	-590.232640	54.892821	565.326689	-631.499589	44.841304	626.685869	
769	3.840000	-6.302465	1442.641710	-75.677646	-204.216089	1426.504613	-44.401165	-101.605369	1422.964613	29.582120	-227.632009	1306.373640	-13.310220	-445.649570	1037.214073	24.591896	-152.215524	1164.882331	-52.222698	-205.383387	1219.454962	-186.788380	-387.492905	1141.493043	-251.166750	-385.807328	1092.799063	-244.141955	-444.501535	1102.193021	-257.494392	-552.325367	1043.464565	-247.186845	-566.226687	1053.575008	-174.910562	-528.989783	788.076808	-182.592152	-601.276244	785.677825	-200.150702	-524.685883	712.356887	-207.424073	-120.619695	1225.761775	113.033798	-135.923686	1079.654682	210.714485	-113.913999	1044.747208	188.223831	-135.004249	1016.689454	237.764927	-135.002508	878.256021	251.950677	-196.726295	859.851615	210.537402	-9.109244	933.230401	31.878236	24.621679	875.885316	47.117267	61.671855	962.560235	10.604108	-303.227048	864.734116	158.299295	-491.697880	946.736090	52.504799	-506.282454	909.210424	38.855193	-490.658946	927.437618	92.554909	-347.769740	619.378963	-130.518324	-273.441018	601.444979	-169.545501	-252.386712	643.760398	-180.819738	-234.540010	554.796202	-157.823161	-1.214003	394.555701	-94.665057	-60.414215	335.668716	-67.541530	-17.496163	344.188045	-71.610098	24.694030	307.439400	-5.254394	10.983346	186.707821	105.117560	-11.205311	184.263404	205.174713	175.392806	189.032656	81.969118	149.456667	166.418614	49.220866	-384.821564	678.761846	328.481062	-362.158144	621.021646	347.828822	-332.649154	609.340696	339.588929	-412.995834	555.486144	372.410105	-425.409702	449.989965	407.555304	-518.890135	255.708211	463.955251	-607.978202	261.050244	527.956262	-579.472607	225.159727	516.462875	-611.445921	177.856781	506.780740	-705.505392	158.435448	575.654298	-796.439429	136.362484	556.727549	-593.097616	52.922026	524.448886	-588.671793	54.819125	565.338049	-629.856533	47.477830	626.920241	
770	3.845000	15.746155	1446.231332	-88.029638	-182.182833	1430.891330	-57.127414	-79.735496	1427.001217	17.071325	-205.266034	1309.310850	-23.911725	-419.784951	1038.410831	18.596731	-129.500914	1169.044253	-65.410550	-186.298451	1224.371288	-198.178345	-369.577823	1147.706302	-259.123040	-367.606127	1098.767029	-253.723021	-426.740976	1108.648415	-264.949561	-534.108689	1048.777170	-252.733439	-545.541624	1056.696417	-179.633806	-501.653097	792.606562	-195.552157	-574.590802	788.569712	-209.999910	-496.315550	717.471582	-222.536467	-95.379637	1229.719166	98.942754	-108.379244	1082.992496	196.229595	-86.960755	1048.316876	172.611482	-106.888527	1019.738521	222.513263	-106.737313	881.419638	235.728160	-169.742145	863.311436	195.570187	10.339410	942.974478	12.395814	45.738068	885.986641	25.232995	79.615970	974.112659	-11.280453	-275.751968	865.095662	149.683030	-465.017722	948.850486	47.015672	-480.128477	911.372198	33.735741	-463.290096	929.567330	87.086904	-325.456975	619.318400	-136.996110	-251.461667	600.341761	-176.186686	-230.294735	642.387059	-188.123736	-212.813109	553.536089	-164.045655	25.272215	394.547172	-104.547723	-31.358174	333.608547	-76.431332	10.849885	343.646943	-81.900615	56.503061	307.465975	-16.593597	49.601452	185.310071	93.373908	29.792895	182.318669	193.735938	213.981662	191.442451	67.122688	188.191572	167.945742	35.001720	-363.785762	681.614472	320.912102	-343.751530	622.780642	340.110602	-314.994899	609.853944	331.556062	-397.695228	559.981914	365.468425	-415.406487	455.379968	400.981102	-511.062655	261.903353	459.628706	-599.235218	268.432942	524.652196	-571.088839	232.192949	513.213607	-603.385003	184.959009	504.461057	-697.173350	166.461673	573.781163	-788.451865	148.444123	555.462520	-591.884492	52.518779	524.475279	-586.823223	54.909910	565.221933	-627.849965	50.728428	626.957762	
771	3.850000	37.843659	1449.744686	-100.325192	-160.151986	1435.229608	-70.007741	-57.922455	1430.971639	4.490373	-182.901661	1312.222240	-34.618950	-393.878401	1039.647301	12.428805	-106.846688	1173.193905	-78.652152	-167.190613	1229.197705	-209.511250	-351.436124	1153.631148	-267.065892	-349.206034	1104.512078	-263.156085	-408.704978	1114.754665	-272.296607	-515.534837	1053.685683	-258.278518	-524.461290	1059.406699	-184.497934	-474.227414	797.119235	-208.891690	-547.616396	791.303757	-220.399538	-467.854915	722.647728	-238.044729	-70.241555	1233.613520	84.853390	-81.083399	1086.402336	181.865720	-60.353208	1051.893949	157.251730	-79.208547	1022.913859	207.477549	-79.037014	884.727990	220.101135	-143.279642	866.930465	181.340302	29.572760	951.847266	-6.155009	66.366334	895.256069	4.548058	97.319651	984.557977	-32.051965	-248.325791	865.453247	140.844692	-438.243329	951.079558	41.245717	-453.886923	913.649898	28.363394	-435.788044	931.803617	81.324912	-302.819999	618.932007	-143.574480	-229.140127	598.932263	-182.881430	-207.835612	640.683218	-195.454592	-190.759788	551.960587	-170.347314	51.069464	394.082517	-114.163433	-3.168494	331.432799	-85.090090	38.368222	342.750937	-91.867169	87.164553	307.149465	-27.715962	86.646267	183.936890	81.793701	69.105503	180.662645	182.378981	250.941917	193.231598	52.754014	225.316653	168.887008	21.229532	-342.023500	684.590595	312.931504	-324.552882	624.755079	331.864173	-296.589678	610.640614	322.931424	-381.332985	564.700172	357.995900	-404.081498	461.168258	393.752604	-501.898105	268.589656	454.692827	-589.163925	276.284444	520.726967	-561.363002	239.707052	509.330833	-593.935912	192.518112	501.527844	-687.510053	175.109654	571.383083	-778.854149	161.362454	553.271999	-590.365666	52.339786	524.333536	-584.631073	55.271726	564.903290	-625.426024	54.679531	626.634613	
